fd_3_states
version=1
nRows=15
nColumns=17
inDegrees=yes

# SIMM Motion File Header:
name fd_3_states
datacolumns 17
datarows 15
otherdata 1
range 0.030000 0.040244
endheader
time	/jointset/r_shoulder/r_shoulder_elev/value	/jointset/r_shoulder/r_shoulder_elev/speed	/jointset/r_elbow/r_elbow_flex/value	/jointset/r_elbow/r_elbow_flex/speed	/forceset/TRIlong/activation	/forceset/TRIlong/fiber_length	/forceset/TRIlat/activation	/forceset/TRIlat/fiber_length	/forceset/TRImed/activation	/forceset/TRImed/fiber_length	/forceset/BIClong/activation	/forceset/BIClong/fiber_length	/forceset/BICshort/activation	/forceset/BICshort/fiber_length	/forceset/BRA/activation	/forceset/BRA/fiber_length
      0.030000	      0.000000	      0.000000	    135.799993	   -140.000003	      0.020000	      0.184655	      0.471420	      0.118366	      0.482217	      0.113396	      0.679062	      0.057692	      0.020000	      0.060758	      0.020000	      0.049974
      0.030061	     -0.000000	     -0.003034	    135.791402	   -139.997155	      0.020006	      0.184652	      0.470585	      0.118363	      0.481351	      0.113393	      0.677534	      0.057698	      0.020675	      0.060763	      0.020455	      0.049977
      0.030123	     -0.000000	     -0.006122	    135.782811	   -139.994232	      0.020006	      0.184649	      0.469753	      0.118361	      0.480487	      0.113391	      0.676012	      0.057705	      0.021556	      0.060766	      0.020735	      0.049979
      0.030430	     -0.000005	     -0.022545	    135.739859	   -139.976914	      0.020006	      0.184636	      0.465627	      0.118347	      0.476207	      0.113377	      0.668493	      0.057738	      0.025779	      0.060775	      0.022084	      0.049990
      0.031608	     -0.000078	     -0.109143	    135.574945	   -139.849280	      0.020006	      0.184583	      0.450312	      0.118300	      0.460328	      0.113330	      0.640887	      0.057883	      0.039606	      0.060779	      0.026568	      0.050019
      0.033378	     -0.000461	     -0.351047	    135.327689	   -139.478961	      0.020006	      0.184505	      0.428795	      0.118238	      0.438043	      0.113267	      0.602895	      0.058142	      0.054997	      0.060761	      0.031640	      0.050065
      0.034673	     -0.001091	     -0.637836	    135.147308	   -139.107494	      0.020006	      0.184446	      0.414085	      0.118195	      0.422824	      0.113225	      0.577439	      0.058349	      0.063364	      0.060745	      0.034407	      0.050106
      0.035968	     -0.002159	     -1.030577	    134.967446	   -138.680971	      0.020006	      0.184390	      0.400168	      0.118155	      0.408438	      0.113184	      0.553733	      0.058561	      0.069968	      0.060733	      0.036580	      0.050155
      0.037263	     -0.003804	     -1.524806	    134.788168	   -138.203381	      0.020006	      0.184330	      0.386984	      0.118116	      0.394821	      0.113144	      0.531605	      0.058773	      0.075221	      0.060728	      0.038292	      0.050208
      0.038365	     -0.005753	     -2.027471	    134.636175	   -137.765346	      0.020006	      0.184282	      0.376305	      0.118083	      0.383798	      0.113110	      0.513912	      0.058951	      0.078854	      0.060729	      0.039462	      0.050256
      0.039466	     -0.008295	     -2.597834	    134.484684	   -137.291675	      0.020006	      0.184232	      0.366086	      0.118050	      0.373257	      0.113077	      0.497172	      0.059126	      0.081869	      0.060734	      0.040419	      0.050305
      0.039870	     -0.009388	     -2.823815	    134.429331	   -137.109592	      0.020006	      0.184214	      0.362452	      0.118038	      0.369511	      0.113065	      0.491264	      0.059190	      0.082842	      0.060737	      0.040725	      0.050324
      0.040038	     -0.009873	     -2.920984	    134.406179	   -137.031853	      0.020006	      0.184206	      0.360948	      0.118033	      0.367960	      0.113060	      0.488840	      0.059216	      0.083164	      0.060739	      0.040992	      0.050332
      0.040141	     -0.010177	     -2.980983	    134.392068	   -136.983944	      0.020006	      0.184202	      0.360036	      0.118030	      0.367020	      0.113057	      0.487459	      0.059232	      0.083130	      0.060740	      0.041985	      0.050336
      0.040244	     -0.010487	     -3.041559	    134.377961	   -136.935437	      0.020006	      0.184197	      0.359127	      0.118027	      0.366083	      0.113054	      0.486092	      0.059248	      0.083091	      0.060741	      0.043036	      0.050340
